<svg
 width="73"
 height="69"
 className="smiley"
 viewBox="0 0 73 69"
 fill="none"
 xmlns="http://www.w3.org/2000/svg">
 <path
   d="M69.6 32.7L69.4 30.3L44.0999 32.6L67.6 22.8L66.6999 20.6L42.9 30.5L62.4 13.7L60.9 11.9L41.2999 28.7L54.5999 6.59999L52.5999 5.39999L39.0999 27.6L44.7999 2.29999L42.4 1.79999L36.9 26.7L34.5999 1.29999L32.2 1.49999L34.5 26.8L24.7 3.29999L22.5 4.19999L32.4 28L15.6 8.49999L13.8 9.99999L30.9 30L8.19995 16.8L6.99995 18.9L29.1 31.6L4.19995 26.1L3.69995 28.5L28.6 34L3.19995 36.3L3.39995 38.7L28.7 36.4L5.19995 46.2L6.09995 48.4L29.9 38.5L10.4 55.3L11.9 57.1L31.5 40.3L18.2 62.4L20.2 63.6L33.7 41.4L28 66.7L30.4 67.2L35.9 42.3L38.2 67.7L40.5999 67.5L38.2999 42.2L48.0999 65.7L50.2999 64.8L40.4 41L57.2 60.5L59 59L41.9 39L64.5999 52.2L65.8 50.1L43.7 37.4L68.6 42.9L69.1 40.5L44.2 35L69.6 32.7Z"
   fill="#000"
 />
 </svg>