<svg width="64" height="93" viewBox="0 0 64 93" fill="none" xmlns="http://www.w3.org/2000/svg">
<path d="M19.4596 15.4V9.76C19.4596 4.06 15.6796 0.399997 10.0996 0.399997C4.57961 0.399997 0.799609 4.06 0.799609 9.76V14.14C0.799609 18.28 1.75961 20.56 7.39961 25.24C11.1796 28.36 12.0796 29.02 12.0796 32.62V37.48C12.0796 38.86 11.2396 39.64 10.0996 39.64C9.01961 39.64 8.11961 38.86 8.11961 37.48V31.6H0.739609V37.3C0.739609 43.3 4.57961 46.6 10.0996 46.6C15.6796 46.6 19.5196 43.3 19.5196 37.3V30.94C19.5196 27.04 18.4396 24.28 12.8596 19.84C8.65961 16.48 8.17961 15.82 8.17961 13.06V9.46C8.17961 8.14 9.01961 7.36 10.0996 7.36C11.2396 7.36 12.0196 8.14 12.0196 9.46V15.4H19.4596ZM33.8348 0.999996V37.18C33.8348 38.68 32.9348 39.58 31.6148 39.58C30.2348 39.58 29.3348 38.68 29.3348 37.18V0.999996H21.8348V37.18C21.8348 42.64 25.7948 46.54 31.6148 46.54C37.3748 46.54 41.3348 42.64 41.3348 37.18V0.999996H33.8348ZM57.4888 0.999996V26.62L50.1088 0.999996H43.9888V46H50.4688V20.26L57.8488 46H63.9688V0.999996H57.4888ZM23.3259 93L16.1859 69.06L23.0259 48H15.3459L9.88586 65.04V48H2.44586V93H9.88586V74.28L15.2259 93H23.3259ZM31.9171 86.04V73.08H38.2771V66.12H31.9171V54.96H40.0171V48H24.4771V93H40.0771V86.04H31.9171ZM56.0826 48V73.62L48.7026 48H42.5826V93H49.0626V67.26L56.4426 93H62.5626V48H56.0826Z" fill="white"/>
</svg>
